<?xml version="1.0" standalone="no"?>
<!DOCTYPE svg PUBLIC "-//W3C//DTD SVG 20010904//EN"
 "http://www.w3.org/TR/2001/REC-SVG-20010904/DTD/svg10.dtd">
<svg version="1.0" xmlns="http://www.w3.org/2000/svg"
 width="920.000000pt" height="920.000000pt" viewBox="0 0 920.000000 920.000000"
 preserveAspectRatio="xMidYMid meet">

<g transform="translate(0.000000,920.000000) scale(0.100000,-0.100000)"
fill="#000000" stroke="none">
<path d="M4255 8098 c-12 -33 -1093 -3008 -1564 -4302 -501 -1377 -530 -1460
-514 -1478 15 -17 39 -18 411 -16 l395 3 273 780 c151 429 278 790 284 803
l10 22 1222 0 1223 0 24 -67 c13 -38 65 -187 116 -333 312 -888 414 -1177 420
-1193 7 -16 34 -17 422 -15 403 3 416 4 428 23 11 17 -5 66 -110 355 -101 277
-1935 5314 -1967 5403 l-10 27 -529 0 c-415 0 -531 -3 -534 -12z m865 -1746
c189 -532 405 -1138 480 -1347 l135 -380 -482 -3 c-266 -1 -701 -1 -967 0
l-484 3 372 1040 c205 572 422 1178 482 1347 60 169 111 308 114 308 3 0 160
-436 350 -968z"/>
</g>
</svg>
